<?xml version="1.0" encoding="utf-8" ?><svg xmlns="http://www.w3.org/2000/svg" xmlns:xlink="http://www.w3.org/1999/xlink" width="1024" height="535" viewBox="0 0 1024 535"><defs><linearGradient id="gradient_0" gradientUnits="userSpaceOnUse" x1="697.3808" y1="494.34296" x2="320.68619" y2="156.81137"><stop offset="0" stop-color="#553022"/><stop offset="1" stop-color="#755447"/></linearGradient></defs><path fill="url(#gradient_0)" d="M393.505 135.617C360.186 107.364 333.024 81.2131 329.171 33.6722C328.181 21.4562 346.18 21.4628 356.556 20.5345C404.514 16.2443 452.12 38.2045 483.988 73.3977C485.463 54.5928 491.961 32.2572 507.295 20.0144C523.466 29.4867 534.799 45.0393 541.812 62.1286C577.382 35.9581 614.614 24.2095 659.487 31.1744C667.735 32.4546 691.255 37.5322 698.352 43.8616C701.325 47.6739 696.913 57.9712 695.688 61.5354C687.023 86.7399 670.884 110.343 648.862 125.615C643.349 129.438 636.517 132.613 631.371 136.566C637.098 137.052 648.737 136.599 654.952 136.566L671.434 136.566C687.985 140.912 688.62 140.596 700.065 153.617C710.914 165.958 722.812 178.044 733.769 190.407C736.065 192.599 736.356 197.556 736.021 200.531L708.601 430.745C707.101 443.306 703.839 484.474 700.158 492.082C689.72 513.656 663.069 510.127 643.533 510.089L400.657 510.101C383.085 510.107 365.454 510.237 347.89 509.928C326.607 509.553 323.41 490.745 320.971 475.234L289.805 222.781C288.342 211.254 284.802 198.844 290.624 188.122C292.351 190.773 293.471 193.192 296.885 193.757C309.275 198.08 326.044 197.553 339.3 197.475C341.312 197.184 347.609 197.43 349.973 197.475C349.876 183.318 349.636 191.98 347.282 180.617C353.163 174.319 361.237 172.406 369.458 171.903C369.425 163.559 373.046 142.298 365.929 141.049C377.169 140.631 388.807 139.943 400.014 140.047C397.847 138.512 395.769 137.015 393.505 135.617Z"/><path fill="#5C392E" d="M393.505 135.617C360.186 107.364 333.024 81.2131 329.171 33.6722C328.181 21.4562 346.18 21.4628 356.556 20.5345C404.514 16.2443 452.12 38.2045 483.988 73.3977C485.463 54.5928 491.961 32.2572 507.295 20.0144C523.466 29.4867 534.799 45.0393 541.812 62.1286C577.382 35.9581 614.614 24.2095 659.487 31.1744C667.735 32.4546 691.255 37.5322 698.352 43.8616C701.325 47.6739 696.913 57.9712 695.688 61.5354C687.023 86.7399 670.884 110.343 648.862 125.615C643.349 129.438 636.517 132.613 631.371 136.566C637.098 137.052 648.737 136.599 654.952 136.566L671.434 136.566C671.389 137.747 671.226 139.978 671.434 141.049C671.491 144.756 671.822 176.299 671.434 177.359C667.421 175.577 659.412 173.315 654.952 171.903L650.427 171.903C664.335 180.829 625.493 183.925 621.471 183.392C582.648 188.777 534.53 188.52 495.344 188.286C493.484 188.274 491.885 188.444 490.011 188.122C495.703 187.799 493.072 181.841 492.968 177.359C492.7 174.941 492.952 166.77 492.968 163.933C477.914 164.285 471.436 163.186 456.966 162.467C446.345 158.582 436.021 156.876 424.726 152.063C419.493 149.833 403.571 141.052 400.014 140.047C397.847 138.512 395.769 137.015 393.505 135.617Z"/><path fill="#E7CFC4" d="M621.471 141.049C623.79 140.317 627.564 137.794 631.371 136.566C637.098 137.052 648.737 136.599 654.952 136.566L671.434 136.566C671.389 137.747 671.226 139.978 671.434 141.049C671.491 144.756 671.822 176.299 671.434 177.359C667.421 175.577 659.412 173.315 654.952 171.903L650.427 171.903C664.335 180.829 625.493 183.925 621.471 183.392C609.307 178.238 537.974 177.237 522.496 177.359L522.496 162.467L522.496 153.984C525.484 153.924 527.97 154.117 530.91 154.593C563.911 159.928 590.93 151.117 621.471 141.049Z"/><path fill="#BE7D68" d="M522.496 162.467C556.465 160.812 620.747 163.505 650.427 171.903C664.335 180.829 625.493 183.925 621.471 183.392C609.307 178.238 537.974 177.237 522.496 177.359L522.496 162.467Z"/><path fill="white" d="M670.128 141.049L671.434 141.049C671.491 144.756 671.822 176.299 671.434 177.359C667.421 175.577 659.412 173.315 654.952 171.903C655.875 167.559 654.983 146.81 654.952 141.049C660.842 141.517 664.301 141.777 670.128 141.049Z"/><path fill="#9E806D" d="M621.471 141.049C623.79 140.317 627.564 137.794 631.371 136.566C637.098 137.052 648.737 136.599 654.952 136.566L654.952 141.049L621.471 141.049Z"/><path fill="#C29677" d="M654.952 136.566L671.434 136.566C671.389 137.747 671.226 139.978 671.434 141.049L670.128 141.049C668.455 140.703 657.269 141.02 654.952 141.049L654.952 136.566Z"/><path fill="#A9B859" d="M361.533 26.9836C388.908 22.4267 429.193 38.0174 451.694 53.4135C486.698 77.3648 508.366 108.43 516.497 149.527C487.25 122.798 475.8 105.87 436.147 85.9827C433.087 84.4478 430.844 85.9382 431.042 89.1845C432.282 91.6029 443.343 96.8168 446.283 98.4233C476.827 116.524 488.564 131.957 512.55 153.984C441.606 170.703 358.764 123.45 338.941 53.6482C336.683 45.6959 335.861 39.6708 334.87 31.575C344.714 28.2869 351.275 27.4304 361.533 26.9836Z"/><path fill="#A9B859" d="M631.371 36.0017C648.466 34.1824 677.894 40.2559 693.567 47.8333C684.647 79.7748 667.589 107.527 638.573 124.775C605.66 144.341 560.147 155.875 522.496 146.463C520.733 138.783 520.07 134.355 516.497 127.262C526.246 120.279 533.794 114.035 544.169 107.59C554.984 100.156 566.556 93.7485 578.327 87.7137C578.76 87.4917 607.356 76.1383 594.326 73.6133C571.907 80.766 531.981 106.488 515.098 121.026C514.231 119.25 513.177 115.453 512.55 113.424C522.019 67.7634 588.861 36.8161 631.371 36.0017Z"/><path fill="#A9B859" d="M507.295 26.9836C521.293 36.5946 530.682 50.3339 536.854 65.9119C527.749 74.8797 517.694 86.6409 512.55 98.4233C510.39 101.749 509.111 104.055 507.295 107.59C503.334 96.2908 497.568 88.704 490.011 79.5933C489.118 57.3183 495.85 45.0782 507.295 26.9836Z"/><path fill="#A9B859" d="M516.497 157.934C517.04 158.977 516.502 178.954 516.497 181.916L498.901 181.916C498.272 181.157 498.892 166.57 498.901 163.933C505.613 161.941 510.034 160.796 516.497 157.934Z"/><path fill="#D7BBA3" d="M400.014 140.047C403.571 141.052 419.493 149.833 424.726 152.063C436.021 156.876 446.345 158.582 456.966 162.467C471.436 163.186 477.914 164.285 492.968 163.933C492.952 166.77 492.7 174.941 492.968 177.359C493.072 181.841 495.703 187.799 490.011 188.122C491.885 188.444 493.484 188.274 495.344 188.286C534.53 188.52 582.648 188.777 621.471 183.392C625.493 183.925 664.335 180.829 650.427 171.903L654.952 171.903C659.412 173.315 667.421 175.577 671.434 177.359C673.475 180.107 672.042 193.447 671.469 197.255L671.434 197.475L339.3 197.475C341.312 197.184 347.609 197.43 349.973 197.475C349.876 183.318 349.636 191.98 347.282 180.617C353.163 174.319 361.237 172.406 369.458 171.903C369.425 163.559 373.046 142.298 365.929 141.049C377.169 140.631 388.807 139.943 400.014 140.047Z"/><path fill="#BE7D68" d="M400.014 140.047C403.571 141.052 419.493 149.833 424.726 152.063C436.021 156.876 446.345 158.582 456.966 162.467C471.436 163.186 477.914 164.285 492.968 163.933C492.952 166.77 492.7 174.941 492.968 177.359C493.072 181.841 495.703 187.799 490.011 188.122C460.899 190.518 432.675 183.872 405.083 185.428C390.68 181.269 380.666 184.073 363.186 177.359C368.247 173.769 370.75 173.167 376.649 171.903C373.89 171.288 372.228 171.605 369.458 171.903C369.425 163.559 373.046 142.298 365.929 141.049C377.169 140.631 388.807 139.943 400.014 140.047Z"/><path fill="#E7CFC4" d="M400.014 140.047C403.571 141.052 419.493 149.833 424.726 152.063C436.021 156.876 446.345 158.582 456.966 162.467L456.508 162.978C440.424 162.214 386.733 166.133 376.649 171.903C373.89 171.288 372.228 171.605 369.458 171.903C369.425 163.559 373.046 142.298 365.929 141.049C377.169 140.631 388.807 139.943 400.014 140.047Z"/><path fill="#4A251E" d="M405.083 185.428C406.082 179.042 483.133 176.935 492.968 177.359C493.072 181.841 495.703 187.799 490.011 188.122C460.899 190.518 432.675 183.872 405.083 185.428Z"/><path fill="#E7CFC4" d="M671.434 136.566C687.985 140.912 688.62 140.596 700.065 153.617C710.914 165.958 722.812 178.044 733.769 190.407C731.699 191.472 729.819 192.582 727.817 193.757C713.895 199.219 687.555 197.499 671.434 197.475L671.469 197.255C672.042 193.447 673.475 180.107 671.434 177.359C671.822 176.299 671.491 144.756 671.434 141.049C671.226 139.978 671.389 137.747 671.434 136.566Z"/><path fill="#9E806D" d="M671.434 136.566C687.985 140.912 688.62 140.596 700.065 153.617C710.914 165.958 722.812 178.044 733.769 190.407C731.699 191.472 729.819 192.582 727.817 193.757C722.734 183.627 705.851 170.131 698.43 160.462C688.522 147.554 685.976 145.584 671.434 141.049C671.226 139.978 671.389 137.747 671.434 136.566Z"/><path fill="#D7BBA3" d="M292.313 199.379C302.835 201.334 309.273 202.667 320.095 203.529C350.567 203.012 382.58 203.536 413.183 203.536L674.379 203.547C689.333 203.557 716.927 205.485 730.051 199.379C727.078 222.178 726.028 245.758 721.807 268.318C721.292 278.837 718.872 295.296 717.585 306.154L700.503 448.59C699.127 460.288 699.091 484.701 691.988 493.711C686.838 498.89 681.426 501.767 674.349 503.627L674.349 503.627C669.565 504.093 659.423 503.717 654.257 503.672L367.364 503.676C363.956 503.683 354.981 503.948 352.075 503.627C347.572 503.862 339.453 503.239 336.884 498.964C326.492 492.248 326.742 477.459 325.362 466.226L303.287 288.389C301.951 278.162 301.081 267.758 299.245 257.611C297.839 239.287 294.656 217.894 292.313 199.379Z"/><path fill="#C29677" d="M719.273 268.318L719.514 269.114C721.376 265.484 725.933 209.683 727.464 201.425L728.622 201.457C730.079 205.143 719.922 263.591 721.807 268.318C721.292 278.837 718.872 295.296 717.585 306.154L700.503 448.59C699.127 460.288 699.091 484.701 691.988 493.711C686.838 498.89 681.426 501.767 674.349 503.627C676.09 500.24 680.03 494.721 680.411 491.209L692.567 377.717C695.59 351.801 696.43 314.875 701.992 291.99C706.067 264.657 708.316 235.071 711.734 207.545C716.359 206.593 721.584 204.897 726.164 203.529C724.429 225.455 721.138 246.635 719.273 268.318Z"/><path fill="#D7BBA3" d="M719.273 268.318L719.514 269.114C721.376 265.484 725.933 209.683 727.464 201.425L728.622 201.457C730.079 205.143 719.922 263.591 721.807 268.318C721.292 278.837 718.872 295.296 717.585 306.154L700.503 448.59C699.127 460.288 699.091 484.701 691.988 493.711C690.886 494.211 690.663 494.349 689.485 494.552L689.398 493.596C692.868 489.339 694.377 479.246 695.002 473.71L716.792 287.648C717.178 284.001 718.358 271.079 719.273 268.318Z"/><path fill="#E7CFC4" d="M320.095 203.529C350.567 203.012 382.58 203.536 413.183 203.536L674.379 203.547C689.333 203.557 716.927 205.485 730.051 199.379C727.078 222.178 726.028 245.758 721.807 268.318C719.922 263.591 730.079 205.143 728.622 201.457L727.464 201.425C725.933 209.683 721.376 265.484 719.514 269.114L719.273 268.318C721.138 246.635 724.429 225.455 726.164 203.529C721.584 204.897 716.359 206.593 711.734 207.545C680.986 207.872 650.233 207.151 619.625 207.149L344.033 207.564C327.265 207.566 315.667 208.244 299.245 203.529C299.161 210.4 299.733 221.817 300.669 228.696L304.108 254.148C304.403 256.489 305.385 262.638 305.159 264.655C302.738 258.343 302.977 241.7 300.457 233.81C293.464 185.247 301.524 208.736 320.095 203.529Z"/><path fill="white" d="M292.313 199.379C302.835 201.334 309.273 202.667 320.095 203.529C301.524 208.736 293.464 185.247 300.457 233.81C302.977 241.7 302.738 258.343 305.159 264.655C306.521 266.207 316.098 350.54 316.573 355.986C316.955 360.371 318.906 365.321 319.347 369.852C323.577 413.352 329.735 453.411 335.948 496.165L335.663 496.018C335.977 498.047 336.345 497.629 336.884 498.964C326.492 492.248 326.742 477.459 325.362 466.226L303.287 288.389C301.951 278.162 301.081 267.758 299.245 257.611C297.839 239.287 294.656 217.894 292.313 199.379Z"/><path fill="#C29677" d="M355.499 498.964L632.875 498.939C643.648 498.938 654.714 498.581 665.432 499.514C669.629 499.879 669.655 502.875 674.349 503.627C669.565 504.093 659.423 503.717 654.257 503.672L367.364 503.676C363.956 503.683 354.981 503.948 352.075 503.627L348.95 502.903C350.113 501.577 351.87 502.797 355.326 499.149L355.499 498.964Z"/><path fill="#5C392E" d="M397.88 273.465L603.518 273.43C644.557 273.412 638.983 278.383 638.981 317.924L639.038 398.939C639.123 414.094 641.233 422.92 626.737 432.022C623.435 432.608 611.417 432.045 607.305 432.023L458.435 432.019C440.371 432.024 392.689 439.401 386.069 419.726C384.273 414.387 385.372 371.803 385.371 363.452L385.376 315.52C385.382 298.842 379.897 279.21 397.88 273.465Z"/><path fill="#E0E6C3" d="M397.88 280.055L602.107 280.022C614.392 280.018 632.868 275.468 632.724 291.773L632.584 398.736C632.622 409.917 635.184 418.516 625.169 425.473C622.122 425.925 611.985 425.539 608.402 425.52L446.454 425.457C432.293 425.459 414 426.009 399.776 424.939C387.643 423.952 391.181 393.912 391.191 385.855L391.25 338.522C391.262 324.181 386.088 286.573 397.88 280.055Z"/><path fill="#5C392E" d="M559.644 331.331C563.538 325.93 568.767 326.432 572.792 331.331C577.184 336.889 577.758 347.076 573.351 352.774C563.829 365.088 547.864 346.092 559.644 331.331Z"/><path fill="#4A251E" d="M570.873 331.331L572.792 331.331C577.184 336.889 577.758 347.076 573.351 352.774C563.829 365.088 547.864 346.092 559.644 331.331L559.644 333.122C545.346 361.725 587.612 360.364 570.873 331.331Z"/><path fill="#4A251E" d="M559.644 331.331C563.538 325.93 568.767 326.432 572.792 331.331L570.873 331.331C566.178 328.745 563.358 329.408 559.644 333.122L559.644 331.331Z"/><path fill="#4A251E" d="M456.966 327.556C469.225 327.691 472.786 351.614 458.809 356.543C443.686 356.345 443.941 332.259 456.966 327.556Z"/><path fill="#5C392E" d="M454.731 331.331C468.964 327.832 468.198 347.381 460.446 354.059C448.764 357.511 445.133 337.334 454.731 331.331Z"/><path fill="#5C392E" d="M490.011 359.793C493.935 359.791 509.822 390.675 527.707 368.431C530.21 365.318 530.292 360.739 534.633 359.859C537.937 360.903 537.69 363.93 536.854 366.549C519.549 398.777 479.622 372.929 490.011 359.793Z"/><path fill="#4A251E" d="M469.7 449.781C471.884 448.901 474.371 449.924 475.303 452.086C476.235 454.248 475.272 456.759 473.133 457.742C471.703 458.4 470.029 458.231 468.759 457.301C467.489 456.371 466.823 454.826 467.019 453.265C467.214 451.703 468.24 450.37 469.7 449.781Z"/><path fill="#4A251E" d="M480.53 468.153C482.754 467.543 485.065 468.786 485.784 470.978C486.502 473.169 485.375 475.539 483.221 476.365C481.731 476.936 480.046 476.64 478.84 475.595C477.633 474.549 477.1 472.924 477.454 471.367C477.808 469.81 478.99 468.574 480.53 468.153Z"/><path fill="#4A251E" d="M561.671 468.258C563.136 467.78 564.745 468.127 565.883 469.167C567.021 470.206 567.512 471.777 567.169 473.28C566.826 474.782 565.701 475.984 564.224 476.426C561.98 477.097 559.612 475.839 558.913 473.603C558.214 471.367 559.444 468.985 561.671 468.258Z"/><path fill="#4A251E" d="M550.857 449.894C552.311 449.316 553.964 449.578 555.167 450.577C556.371 451.576 556.932 453.153 556.631 454.688C556.33 456.223 555.214 457.471 553.722 457.941C551.529 458.632 549.182 457.465 548.411 455.298C547.64 453.132 548.721 450.744 550.857 449.894Z"/><path fill="#4A251E" d="M521.173 468.295C523.401 467.631 525.75 468.88 526.445 471.099C527.141 473.318 525.925 475.684 523.717 476.412C522.26 476.892 520.657 476.549 519.522 475.516C518.388 474.483 517.898 472.92 518.239 471.424C518.581 469.928 519.702 468.732 521.173 468.295Z"/><path fill="#4A251E" d="M509.821 449.868C511.26 449.303 512.892 449.565 514.082 450.551C515.272 451.537 515.832 453.092 515.545 454.611C515.258 456.129 514.168 457.372 512.7 457.856C510.516 458.575 508.157 457.425 507.377 455.262C506.597 453.099 507.68 450.708 509.821 449.868Z"/><path fill="#4A251E" d="M460.427 468.19C462.625 467.667 464.845 468.968 465.464 471.141C466.083 473.314 464.881 475.589 462.737 476.302C461.264 476.793 459.641 476.435 458.511 475.371C457.381 474.307 456.925 472.709 457.326 471.209C457.726 469.709 458.917 468.55 460.427 468.19Z"/><path fill="#4A251E" d="M530.291 449.823C532.472 449.03 534.884 450.153 535.681 452.333C536.478 454.513 535.359 456.927 533.18 457.728C530.996 458.53 528.575 457.408 527.776 455.223C526.977 453.037 528.104 450.618 530.291 449.823Z"/><path fill="#4A251E" d="M490.173 449.734C492.361 449.098 494.658 450.32 495.352 452.49C496.046 454.661 494.884 456.989 492.733 457.74C491.29 458.244 489.687 457.925 488.547 456.907C487.406 455.889 486.909 454.332 487.247 452.841C487.585 451.35 488.705 450.16 490.173 449.734Z"/><path fill="#4A251E" d="M500.847 468.289C503.019 467.619 505.33 468.8 506.06 470.953C506.789 473.106 505.672 475.448 503.539 476.236C502.107 476.765 500.501 476.475 499.344 475.478C498.188 474.481 497.664 472.935 497.977 471.441C498.289 469.946 499.388 468.739 500.847 468.289Z"/><path fill="#4A251E" d="M541.727 468.273C543.84 467.839 545.938 469.079 546.577 471.139C547.217 473.199 546.19 475.408 544.203 476.247C542.731 476.868 541.034 476.599 539.826 475.554C538.619 474.509 538.109 472.868 538.513 471.323C538.916 469.777 540.162 468.595 541.727 468.273Z"/><path fill="#E7CFC4" d="M393.505 135.617C395.769 137.015 397.847 138.512 400.014 140.047C388.807 139.943 377.169 140.631 365.929 141.049C373.046 142.298 369.425 163.559 369.458 171.903C361.237 172.406 353.163 174.319 347.282 180.617C349.636 191.98 349.876 183.318 349.973 197.475C347.609 197.43 341.312 197.184 339.3 197.475C326.044 197.553 309.275 198.08 296.885 193.757C293.471 193.192 292.351 190.773 290.624 188.122C302.897 177.964 327.151 144.417 336.554 141.033C352.69 135.227 376.56 135.876 393.505 135.617Z"/><path fill="#9E806D" d="M393.505 135.617C395.769 137.015 397.847 138.512 400.014 140.047C388.807 139.943 377.169 140.631 365.929 141.049C358.011 141.965 354.793 141.919 347.282 144.929C345.29 144.892 343.108 144.805 341.136 144.929L312.427 176.335C309.286 179.741 298.553 190.789 296.885 193.757C293.471 193.192 292.351 190.773 290.624 188.122C302.897 177.964 327.151 144.417 336.554 141.033C352.69 135.227 376.56 135.876 393.505 135.617Z"/><path fill="white" d="M347.282 144.929C354.793 141.919 358.011 141.965 365.929 141.049C373.046 142.298 369.425 163.559 369.458 171.903C361.237 172.406 353.163 174.319 347.282 180.617C346.869 178.299 347.242 169.969 347.271 167.189L347.282 144.929Z"/></svg>